<?xml version="1.0" encoding="UTF-8"?>
<svg id="puzzle" xmlns="http://www.w3.org/2000/svg" viewBox="0 0 700 700">
  <defs>
    <style>
      .cls-1 {
        fill: none;
      }
    </style>
  </defs>
  <path id="puzzle_0" class="cls-1" d="m204.91,130.77c-5.76,15.88-3.9,4.26-19.77,4.52-15.87.26-15.96,32.62-4.06,32.8,11.9.18,12.94-14.52,20.44-1.12,3.66,6.55,1.2,19.32-1.47,32.46,13.71,4.66,27.82,9.26,35.61,6.03,15.66-6.48-1.75-8.58-.28-23.83,1.47-15.25,29.86-7.89,31,4.36,1.14,12.25-9.8,14.46,2.09,20.14,6.47,3.09,21.64,4.22,36.42,3.4-4.39-16.8-11.64-35.81-6.88-44.4,7.54-13.61,7.52,1.99,20.88.07,13.35-1.93,12.58-29.1-3.28-29.41-15.86-.31-12.95,15.9-19.32.18-4.06-10.02-5.91-29.58-5.22-45.53-9.11-.02-17.28,1.12-22.21,3.89-13.32,7.47,1.11,10.1.46,22.1-.65,12-32.34,16.65-33.46,1.11s13.21-11.87-1.26-19.34c-7.39-3.82-22.31-6-36.82-6.28,4.06,13.77,10.62,29.26,7.14,38.87Z"/>
  <path id="puzzle_1" class="cls-1" d="m296.28,135.96c6.37,15.72,3.46-.49,19.32-.18,15.86.31,16.64,27.48,3.28,29.41-13.35,1.93-13.34-13.68-20.88-.07-4.76,8.6,2.49,27.6,6.88,44.4,12.38-.69,24.49-2.75,30.98-6.18,14.23-7.53-5.97-7.27-4.2-22.1s36.83-10.17,37.66,1.89c.82,12.07-18.77,12.78-5.23,20.3,6.75,3.75,20.74.09,35.01-3.72,3.89-12.44,7.45-24.4,3.92-30.65-7.34-12.99-9.31.67-21.76-.72-12.45-1.39-14.93-32.38-.5-34.31,14.42-1.93,16.41,17.49,23.07,1.93,3.91-9.14,5.28-28.07,4.39-44.62-14.87-.71-31.53,1.48-38.97,5.13-11.91,5.85,1.67,8.14-.06,21.04-1.73,12.89-36,12.24-37.53-2.94-1.54-15.17,17.91-9.23,2.71-16.3-9.57-4.46-27.8-7.84-43.31-7.86-.69,15.96,1.16,35.52,5.22,45.53Z"/>
  <path id="puzzle_2" class="cls-1" d="m480.87,132.31c-14.76,1.8-8.05,31.81,3.86,32.09,11.91.28,13.85-12.54,20.95.08,2.88,5.12.34,15.3-3.22,26.59,11.39,1.47,22.64,4.3,29.87,7.24,15.7,6.39,2.94,2.63,3.67,18.38s33.22,11.12,33.23-.76c0-11.89-13.26-13.3.02-20.76,6.51-3.65,18.82-4.8,31.47-4.18,3.31-11.24,5.8-21.53,2.81-26.9-6.95-12.46-9.03,3.88-22.76,1.89-13.73-1.99-9.59-30.94,5.24-32.7,14.83-1.77,13.61,13.49,19.18-2.4,3.34-9.53-4.27-25.44-9.28-39.59-12.1,1.32-23.46,3.96-29.28,7.23-12.57,7.06,1.59,3.27.44,15.53-1.15,12.26-31.01,14.18-32.99.07-1.99-14.11,12.66-13.15-2.86-19.87-5.41-2.34-13.18-3.86-21.52-4.57-.15,16.09-3.23,35.62-7.64,45.28-6.99,15.28-6.41-4.43-21.17-2.63Z"/>
  <path id="puzzle_3" class="cls-1" d="m133.95,193.24c15.55,6.67-3.98,11.78-1.98,25.72,2,13.94,34,7.48,35.3-4.89,1.3-12.37-12.61-14.53-.55-20.9,6.06-3.2,19.49,1.56,33.34,6.26,2.66-13.13,5.13-25.91,1.47-32.46-7.49-13.39-8.54,1.3-20.44,1.12-11.9-.18-11.81-32.54,4.06-32.8,15.87-.26,14.01,11.36,19.77-4.52,3.48-9.61-3.08-25.1-7.14-38.87-13.9-.27-27.44,1.22-33.66,4.73-12.7,7.17,4.25,8.84,2.25,22.69-2,13.85-29.43,11.1-30.86-4.19-1.42-15.29,11.36-14.35-2.83-21.88-6.57-3.48-18.75.55-31.15,5.23-5.07,13.75-10.87,28.19-7.74,36.55,5.93,15.85,9.59-1.4,25.35-.68,15.76.72,11.24,28.78-1.09,30.03-12.33,1.25-18.07-11.67-23.93.25-2.38,4.84-.61,14.24,1.94,24.78,14.53-.8,29.73.33,37.9,3.83Z"/>
  <path id="puzzle_4" class="cls-1" d="m403.83,135.98c-6.65,15.56-8.64-3.86-23.07-1.93-14.42,1.93-11.95,32.92.5,34.31,12.45,1.39,14.42-12.27,21.76.72,3.53,6.25-.03,18.2-3.92,30.65,14.35-3.83,28.98-7.8,36.81-4.53,15.64,6.53-6.42,6.15-5.25,21.66,1.17,15.51,35.54,14.76,36.95,2.29,1.41-12.47-13.36-18.02.47-25.57,7.47-4.08,21.01-4.24,34.36-2.52,3.56-11.29,6.11-21.47,3.22-26.59-7.1-12.62-9.04.2-20.95-.08-11.91-.28-18.61-30.28-3.86-32.09s14.18,17.92,21.17,2.63c4.41-9.65,7.49-29.18,7.64-45.28-15.58-1.32-33.14.17-41.03,4.4-12.12,6.48-1.95,12.69-3.17,25s-28.86,14.53-29.8-1.12c-.94-15.65,8.96-14.28-5-21.84-5.24-2.84-13.52-4.31-22.46-4.74.88,16.55-.48,35.48-4.39,44.62Z"/>
  <path id="puzzle_5" class="cls-1" d="m130.67,304.22c14.01-7.55-1.06-6.87.34-22.19,1.4-15.32,36.64-11.95,38.28.79,1.64,12.74-15.54,11.23-2.21,18.71,7.39,4.14,21.87,6.37,35.74,6.26-3.3-16.72-8.36-34.8-4.48-42.04,6.49-12.12,2.07,3.13,15.67,1.15,13.61-1.98,15.02-33.61.93-35.6-14.08-1.99-10.15,19.11-17.12,3.81-3.56-7.82-.56-21.95,2.22-35.68-13.85-4.7-27.28-9.46-33.34-6.26-12.06,6.37,1.85,8.53.55,20.9-1.3,12.37-33.3,18.83-35.3,4.89-2-13.94,17.53-19.04,1.98-25.72-8.17-3.51-23.37-4.64-37.9-3.83,3.73,15.41,9.15,33.23,5.77,42.67-5.7,15.88-5.41-.39-21.06.57-15.64.96-7.33,31.59,4.87,32.66,12.2,1.07,8.38-11.79,15.9,1.69,3.82,6.85-.02,19.46-3.79,32.18,12.96,4.43,25.97,8.8,32.93,5.05Z"/>
  <path id="puzzle_6" class="cls-1" d="m569.25,195.16c-13.28,7.46-.01,8.87-.02,20.76,0,11.89-32.5,16.52-33.23.76s12.03-11.99-3.67-18.38c-7.23-2.94-18.48-5.78-29.87-7.24-5.21,16.51-12.58,35.4-8.31,44.33,7.19,15.04,5.25-.35,21.07.17,15.82.52,11.18,30.14-1.19,31.44-12.37,1.31-9.15-11.6-15.68.55-2.56,4.77-1.45,13.85.38,23.97,13.55.65,27.92,3.2,36.3,6.37,15.84,5.99-3.8,6.88-1.91,21.43,1.89,14.55,35.24,7.26,35.34-4.63.1-11.89-12.65-10.04-.54-16.51,4.41-2.35,12.71-4.31,22.18-5.49.62-12.13,2.5-23.24,5.58-28.7,7.2-12.75,9.34,6.46,22.94,4.48,13.6-1.98,11.65-31.8-3.72-33.15s-14.42,11.66-20.74-4.08c-3.6-8.96,2.18-25.44,6.55-40.28-12.65-.61-24.96.53-31.47,4.18Z"/>
  <path id="puzzle_7" class="cls-1" d="m133.97,501.58c15.86-5.89-3.2-6.47-1.26-20.84,1.94-14.37,32.63-12.15,33.54-.04.9,12.11-10.82,16.32,3.05,23.87,8.45,4.6,23.81,6.42,38.09,5.75,2.7-16.71,3.24-36.02-.57-43.88-5.77-11.9-10.62,4.32-23.14,2.87-12.51-1.45-17.05-34.99-2.83-36.96,14.22-1.97,18.62,14.55,24.76-1.25,3.24-8.33,4.72-21.64,4.4-34.17-17.28,3.42-37.96,11.29-46.01,7.21-11.95-6.06.67-7.65.3-19.57-.37-11.92-31.01-14.25-32.55.92-1.54,15.16,19.85,11.9,4.23,18.46-7.83,3.29-21.74-1.04-35.22-5.31,3.92,13.88,8.51,28.46,5.06,36.79-6.49,15.66-7.16-5.6-22.85-4.73-15.69.87-12.26,31.5.93,33.37,13.19,1.87,10.85-8.76,17.86,3.76,3.49,6.23,1.16,18.24-1.33,30.69,12.61,2.89,25.55,6.04,33.54,3.07Z"/>
  <path id="puzzle_8" class="cls-1" d="m181.3,568.39c-12.09-.88-11.13-34.76,4.69-35.27,15.82-.52,9.2,14.57,15.81-1.02,2.24-5.29,4.21-13.19,5.6-21.78-14.29.67-29.64-1.15-38.09-5.75-13.87-7.55-2.15-11.77-3.05-23.87-.9-12.1-31.59-14.33-33.54.04-1.94,14.37,17.12,14.94,1.26,20.84-7.99,2.97-20.93-.18-33.54-3.07-2.52,12.57-5.21,25.58-2.25,33.55,5.88,15.86.45.91,15.95,2.09,15.5,1.18,13.27,34.12,1.24,34.85-12.03.73-10.78-17.02-17.87-4.41-3.77,6.7,1.11,21.64,5.42,36.44,12.57-3.59,25.21-6.9,32.55-3.59,15.34,6.93-.35,4.77.16,20.6s29.57,8.32,30.84-4.02c1.27-12.34-13.03-14.14-.93-20.59,7.86-4.19,26.55-4.26,42.93-1.98-1.6-10.14-4.17-19.31-6.92-24.28-6.84-12.35-8.15,2.11-20.25,1.23Z"/>
  <path id="puzzle_9" class="cls-1" d="m295.31,569.28c6.95-12.45,11.23.14,23.53-1.08,12.3-1.22,15.86-33.48.49-34.82-15.38-1.34-14.5,15.12-20.89-.58-2.93-7.2-5.43-18.58-6.63-29.99-10.23,3.86-19.49,6.71-24.54,3.96-12.22-6.66-2.09-11.01-3.27-23.27-1.17-12.27-27.06-16.93-28.8-2.06-1.74,14.87,12.06,18.51-3.75,24.63-6.18,2.39-14.9,3.84-24.06,4.26-1.39,8.59-3.35,16.48-5.6,21.78-6.61,15.59.01.5-15.81,1.02-15.82.52-16.78,34.4-4.69,35.27,12.09.88,13.41-13.58,20.25-1.23,2.75,4.97,5.32,14.14,6.92,24.28,8.82,1.23,16.98,3.14,22.43,5.46,15.57,6.64-.87,3.24-.11,18.97.77,15.73,35.58,15.65,36.93,3.24,1.35-12.42-12.86-18.99-.46-25.88,6.28-3.49,19.76,1.9,33.4,7.1-4.38-12.42-8.95-24.59-5.35-31.06Z"/>
  <path id="puzzle_10" class="cls-1" d="m135.99,403.94c15.62-6.56-5.78-3.3-4.23-18.46,1.54-15.16,32.18-12.84,32.55-.92.37,11.92-12.26,13.51-.3,19.57,8.05,4.08,28.73-3.8,46.01-7.21-.29-11.22-2.03-21.82-5.27-27.66-6.84-12.36-11.83-3.02-23.84-3.71-12.01-.69-15.08-29.59-.05-31.24,15.03-1.65,16.48,17.31,22.99,1.66,2.62-6.29,1.19-16.93-1.03-28.19-13.86.11-28.35-2.12-35.74-6.26-13.34-7.48,3.84-5.96,2.21-18.71-1.64-12.74-36.88-16.11-38.28-.79-1.4,15.32,13.68,14.64-.34,22.19-6.96,3.75-19.97-.61-32.93-5.05-3.65,12.33-7.22,24.77-3.67,32.16,7.21,15.01,9.88.85,25.26,2.18,15.38,1.33,9.72,28.88-4.04,30.87-13.77,2-9.8-9.79-17.35,3.93-3.53,6.42-.61,18.1,2.84,30.32,13.48,4.27,27.39,8.6,35.22,5.31Z"/>
  <path id="puzzle_11" class="cls-1" d="m306.7,234.17c-6.36,15.72-6.83,1.71-22.71,1.75-15.89.04-9.95,30.32,2.01,30.86,11.96.54,8.38-13.38,15.56-.66,4.75,8.41,7.35,27.35,6.49,43.56,8.96-.58,17.3-2.19,22.66-5.02,14.24-7.52,1.83-4.58,3.78-18.93,1.95-14.35,27.62-15.29,29.56-1.91,1.94,13.39-10.29,10.8,2.13,17.72,4.72,2.63,13.74,1.28,23.94-1.02-.88-12.94-.11-25.53,3.59-32.26,7.55-13.71,13.28-2.06,25.33-2.84,12.05-.78,14.03-31.42-.04-33.42-14.07-1.99-18.27,18.57-25.1,3.14-3.55-8.01,1.03-22,5.22-35.43-14.27,3.81-28.25,7.47-35.01,3.72-13.54-7.53,6.05-8.23,5.23-20.3-.82-12.07-35.89-16.72-37.66-1.89s18.43,14.58,4.2,22.1c-6.49,3.43-18.6,5.49-30.98,6.18,2.56,9.8,4.15,18.85,1.81,24.65Z"/>
  <path id="puzzle_12" class="cls-1" d="m234.25,280.83c1.7-14.95,32.96-12.03,34.95,1.67,1.99,13.7-11.96,16.46,0,22.52,7.46,3.78,24,5.63,38.86,4.67.86-16.21-1.75-35.15-6.49-43.56-7.18-12.73-3.59,1.2-15.56.66-11.96-.54-17.9-30.82-2.01-30.86,15.89-.04,16.35,13.97,22.71-1.75,2.34-5.79.75-14.84-1.81-24.65-14.78.82-29.94-.31-36.42-3.4-11.89-5.68-.95-7.9-2.09-20.14-1.14-12.25-29.54-19.61-31-4.36-1.47,15.25,15.94,17.35.28,23.83-7.79,3.23-21.91-1.38-35.61-6.03-2.78,13.73-5.78,27.85-2.22,35.68,6.97,15.3,3.03-5.8,17.12-3.81,14.08,1.99,12.67,33.62-.93,35.6-13.61,1.98-9.19-13.27-15.67-1.15-3.88,7.24,1.17,25.33,4.48,42.04,11.17-.09,21.94-1.7,28.27-5.06,14.19-7.53,1.47-6.96,3.16-21.91Z"/>
  <path id="puzzle_13" class="cls-1" d="m393.89,235.15c6.83,15.43,11.03-5.13,25.1-3.14,14.07,1.99,12.09,32.64.04,33.42-12.05.78-17.78-10.86-25.33,2.84-3.7,6.73-4.47,19.31-3.59,32.26,16.61-3.74,36.34-9.98,45.74-5.58,15.16,7.1-3.76,9.44-2.04,24.34,1.72,14.9,34.45,9.6,35.52-2.6,1.07-12.2-12.69-14.38-.07-21.47,5.95-3.35,17.38-4.27,29.47-3.69-1.83-10.12-2.94-19.2-.38-23.97,6.53-12.14,3.3.76,15.68-.55,12.37-1.31,17.01-30.92,1.19-31.44-15.82-.52-13.88,14.87-21.07-.17-4.27-8.93,3.1-27.82,8.31-44.33-13.35-1.72-26.89-1.56-34.36,2.52-13.83,7.55.93,13.11-.47,25.57-1.41,12.47-35.78,13.22-36.95-2.29-1.17-15.51,20.88-15.13,5.25-21.66-7.84-3.27-22.47.7-36.81,4.53-4.19,13.43-8.77,27.42-5.22,35.43Z"/>
  <path id="puzzle_14" class="cls-1" d="m568.46,314.69c-.1,11.89-33.46,19.18-35.34,4.63-1.89-14.55,17.75-15.44,1.91-21.43-8.37-3.17-22.74-5.71-36.3-6.37,2.84,15.67,7.42,33.83,2.84,42.38-7.55,14.08-3.57.95-19.22,1.9-15.65.94-10.62,27.42,1.44,28.23,12.06.81,12.59-7.93,20.02,5.27,3.68,6.53,5.46,17.8,5.52,29.41,9.1-1.73,17.64-2.65,23.45-.28,15.7,6.41-2.61,1.3-1.83,17.03.78,15.73,36.5,14.92,38.28,1.93,1.78-12.99-12.92-14.74.06-22.08,5.98-3.38,16.24-5.06,27.07-5.21-2.72-8.94-4.55-16.9-2.28-21.45,5.95-11.93,10.02,2.24,22.69.66,12.66-1.58,18.25-34.7,2.53-35.52-15.71-.82-17.81,17.32-24.65,1.9-3.91-8.81-5.36-26.82-4.54-43.01-9.47,1.18-17.77,3.13-22.18,5.49-12.11,6.47.64,4.61.54,16.51Z"/>
  <path id="puzzle_15" class="cls-1" d="m230.92,396.98c15.18,7.09,2.68,6.46,4.14,21.72,1.46,15.26,28.51,8.43,30.07-4.21,1.57-12.65-9.73-10.28,2.18-16.06,6.57-3.19,20.98-5.02,35.15-4.87,4.04-11.74,7.18-22.54,4.19-27.88-7.08-12.59-13.43-.73-25.32-.77-11.89-.05-15.05-28.25-.11-29.95,14.94-1.7,15.37,10.73,22.59-4.26,2.45-5.08,3.8-12.68,4.24-21-14.85.96-31.4-.89-38.86-4.67-11.95-6.06,2-8.82,0-22.52-1.99-13.7-33.26-16.62-34.95-1.67-1.7,14.95,11.02,14.37-3.16,21.91-6.33,3.36-17.1,4.97-28.27,5.06,2.22,11.26,3.66,21.9,1.03,28.19-6.52,15.64-7.97-3.31-22.99-1.66-15.03,1.65-11.96,30.55.05,31.24,12.01.69,17-8.64,23.84,3.71,3.23,5.84,4.97,16.44,5.27,27.66,8.37-1.66,15.96-2.27,20.91.04Z"/>
  <path id="puzzle_16" class="cls-1" d="m366.17,301.55c-12.42-6.91-.19-4.33-2.13-17.72-1.93-13.39-27.61-12.44-29.56,1.91-1.95,14.35,10.47,11.41-3.78,18.93-5.36,2.83-13.7,4.44-22.66,5.02-.44,8.32-1.79,15.92-4.24,21-7.22,14.99-7.65,2.56-22.59,4.26-14.94,1.7-11.78,29.91.11,29.95,11.89.05,18.24-11.81,25.32.77,3,5.33-.15,16.13-4.19,27.88,11.52.13,22.88,1.57,29.75,4.69,15.31,6.96-2.96,5.44-1.06,19.94,1.9,14.5,32.08,10.82,32.87-1.23.79-12.05-10.61-10.99,2.71-18.46,5.02-2.82,13.38-1.85,22.6.05-.08-12.98,1.29-25.3,4.01-30.94,5.73-11.9,8.96,1.24,21.03.42,12.07-.83,19.11-34.13,4.6-36.03-14.51-1.9-16.27,19.7-22.23,3.85-3.04-8.07-5.72-21.88-6.63-35.31-10.2,2.29-19.22,3.65-23.94,1.02Z"/>
  <path id="puzzle_17" class="cls-1" d="m468.58,402.31c-12.97-7.33-.86-8.68-2.59-21.56-1.73-12.88-28.08-10.7-30.08,3.27s9.5,11.14-4.78,18.65c-8.9,4.68-26.54-.99-41.8-4.13.09,14.38,1.98,29.56,5.82,37.36,7.31,14.85,6.28-7.04,20.83-5.15,14.54,1.89,11.17,36.14-1.36,37.61-12.53,1.46-11.03-16.54-17.85-4.2-3.74,6.76-5.2,21.33-4.79,35.74,14.48,4.08,30.66,10.13,39.09,5.64,14.15-7.54,2.24-10.02,4.24-24.02s29.7-14.52,31.69-.84c1.99,13.68-13.04,13.45.63,20.99,6.84,3.78,19.27-.07,31.77-3.91,2.78-12.76,5.23-24.77,2.2-30.44-6.48-12.12-7.64.69-20.86-1.19-13.22-1.88-10.44-28.85,4.24-30.69s12.7,10.8,19.34-4.77c3.35-7.87,5.08-20.09,5.02-31.95-15.47,2.94-32.58,8.21-40.75,3.59Z"/>
  <path id="puzzle_18" class="cls-1" d="m483.78,364.04c-12.06-.81-17.09-27.29-1.44-28.23,15.65-.94,11.68,12.19,19.22-1.9,4.58-8.56,0-26.72-2.84-42.38-12.09-.58-23.52.34-29.47,3.69-12.62,7.1,1.14,9.28.07,21.47-1.07,12.2-33.8,17.5-35.52,2.6-1.72-14.9,17.19-17.24,2.04-24.34-9.39-4.4-29.13,1.84-45.74,5.58.91,13.43,3.6,27.24,6.63,35.31,5.96,15.85,7.72-5.76,22.23-3.85,14.51,1.9,7.47,35.2-4.6,36.03-12.07.83-15.3-12.31-21.03-.42-2.72,5.64-4.09,17.96-4.01,30.94,15.25,3.13,32.89,8.81,41.8,4.13,14.29-7.52,2.79-4.68,4.78-18.65s28.35-16.15,30.08-3.27c1.73,12.88-10.38,14.22,2.59,21.56,8.17,4.62,25.28-.65,40.75-3.59-.06-11.61-1.85-22.89-5.52-29.41-7.43-13.2-7.96-4.46-20.02-5.27Z"/>
  <path id="puzzle_19" class="cls-1" d="m396.76,464.17c6.83-12.35,5.32,5.66,17.85,4.2,12.53-1.46,15.9-35.72,1.36-37.61-14.54-1.89-13.52,20-20.83,5.15-3.84-7.81-5.72-22.99-5.82-37.36-9.22-1.9-17.58-2.86-22.6-.05-13.33,7.47-1.92,6.41-2.71,18.46-.79,12.05-30.97,15.74-32.87,1.23-1.9-14.5,16.37-12.98,1.06-19.94-6.87-3.12-18.23-4.57-29.75-4.69-5.5,15.98-12.66,33.71-8.31,41.84,7.54,14.11,9.28-1.79,25.17-1.73,15.89.06,10.24,28.48-3.51,30.48-13.74,1.99-14.28-7.56-21.22,4.88-3.76,6.74-4.18,20.29-2.77,33.78,14.52-5.47,31.02-12.96,40.28-9.33,15.79,6.18.31,5.42,1.84,20.59,1.53,15.18,31.49,18.72,33.46,5.16,1.97-13.55-12.75-13.57.35-20.96,5.3-2.99,14.37-1.14,24.21,1.64-.41-14.41,1.06-28.98,4.79-35.74Z"/>
  <path id="puzzle_20" class="cls-1" d="m294.59,469.02c6.94-12.44,7.47-2.89,21.22-4.88,13.75-1.99,19.4-30.42,3.51-30.48-15.89-.06-17.63,15.85-25.17,1.73-4.35-8.14,2.82-25.86,8.31-41.84-14.17-.16-28.58,1.68-35.15,4.87-11.9,5.78-.61,3.42-2.18,16.06-1.57,12.65-28.61,19.47-30.07,4.21-1.46-15.26,11.04-14.64-4.14-21.72-4.95-2.31-12.53-1.7-20.91-.04.33,12.53-1.15,25.83-4.4,34.17-6.15,15.8-10.54-.72-24.76,1.25-14.22,1.97-9.68,35.51,2.83,36.96,12.51,1.45,17.37-14.77,23.14-2.87,3.81,7.86,3.28,27.18.57,43.88,9.16-.43,17.88-1.87,24.06-4.26,15.81-6.12,2.01-9.76,3.75-24.63,1.74-14.87,27.63-10.21,28.8,2.06,1.17,12.27-8.95,16.62,3.27,23.27,5.05,2.75,14.31-.1,24.54-3.96-1.41-13.5-.99-27.04,2.77-33.78Z"/>
  <path id="puzzle_21" class="cls-1" d="m32.42,498.34c13.9,7.56-.64.07.28,15.74.92,15.66,29.35,15.91,31.3,2.47,1.95-13.45-8.52-12.18,5.14-19.73,6.78-3.74,18.88-1.15,31.29,1.69,2.5-12.45,4.82-24.46,1.33-30.69-7.02-12.52-4.68-1.89-17.86-3.76-13.19-1.87-16.61-32.5-.93-33.37,15.69-.87,16.36,20.39,22.85,4.73,3.45-8.33-1.14-22.9-5.06-36.79-13.41-4.25-26.41-8.43-32.59-4.99-12.4,6.89.07,13.53-.63,25.55-.7,12.02-36.38,12.7-36.81-3.14-.42-15.84,20.86-13.16,5.2-19.65-15.66-6.48-35.94,3.61-35.94,3.61v100s18.52-9.22,32.42-1.66Z"/>
  <path id="puzzle_22" class="cls-1" d="m35.94,396.39c15.66,6.48-5.62,3.8-5.2,19.65.42,15.84,36.11,15.16,36.81,3.14.7-12.02-11.77-18.65.63-25.55,6.18-3.44,19.18.75,32.59,4.99-3.45-12.22-6.37-23.9-2.84-30.32,7.55-13.72,3.59-1.93,17.35-3.93,13.77-2,19.43-29.54,4.04-30.87-15.38-1.33-18.05,12.83-25.26-2.18-3.55-7.39.02-19.83,3.67-32.16-13.14-4.5-26.21-9.07-32.85-5.33-13.18,7.42,1.67,7.67-.29,21.13-1.96,13.47-26.83,16.87-28.64,2.14-1.81-14.73,10.73-16.15-4.43-23.25-15.16-7.1-31.53,6.13-31.53,6.13v100s20.28-10.09,35.94-3.61Z"/>
  <path id="puzzle_23" class="cls-1" d="m32.46,193.31c15.59,6.61,1.52,9.95,1.96,25.79.44,15.84,31.4,12.02,31.51.13.1-11.89-15.29-15.76-1.93-23.25,6.34-3.55,18.92-5.85,32.05-6.57-2.55-10.53-4.31-19.94-1.94-24.78,5.85-11.91,11.6,1,23.93-.25,12.33-1.25,16.84-29.31,1.09-30.03-15.76-.72-19.42,16.54-25.35.68-3.13-8.37,2.67-22.8,7.74-36.55-14.41,5.44-29.13,11.77-35.67,8.23-12.18-6.6,2.1-13.97,1.64-25.91s-31.43-15.05-32.91.18c-1.48,15.23,11.52,13.92-3.15,21.32-14.67,7.4-31.43-2.3-31.43-2.3v100s16.87-13.29,32.46-6.69Z"/>
  <path id="puzzle_24" class="cls-1" d="m31.53,293.87c15.16,7.1,2.62,8.52,4.43,23.25,1.81,14.73,26.68,11.32,28.64-2.14,1.95-13.47-12.89-13.71.29-21.13,6.63-3.74,19.71.83,32.85,5.33,3.76-12.72,7.6-25.33,3.79-32.18-7.51-13.49-3.7-.63-15.9-1.69-12.2-1.07-20.51-31.7-4.87-32.66,15.65-.96,15.36,15.31,21.06-.57,3.38-9.43-2.04-27.26-5.77-42.67-13.13.72-25.7,3.02-32.05,6.57-13.36,7.49,2.03,11.36,1.93,23.25-.1,11.89-31.07,15.71-31.51-.13-.44-15.84,13.63-19.18-1.96-25.79-15.59-6.61-32.46,6.69-32.46,6.69v100s16.37-13.23,31.53-6.13Z"/>
  <path id="puzzle_25" class="cls-1" d="m398.35,567.56c7.42-13.16,4.34-1.56,17.63-3.47,13.29-1.91,14.42-31.41-.2-33.27-14.63-1.86-13.29,15.81-19.19-.05-2.67-7.18-4.28-18.97-4.62-30.87-9.85-2.77-18.91-4.63-24.21-1.64-13.11,7.4,1.62,7.41-.35,20.96-1.97,13.55-31.93,10.01-33.46-5.16-1.53-15.18,13.95-14.41-1.84-20.59-9.26-3.63-25.75,3.86-40.28,9.33,1.19,11.42,3.7,22.8,6.63,29.99,6.39,15.71,5.51-.75,20.89.58,15.38,1.34,11.82,33.6-.49,34.82-12.3,1.22-16.58-11.37-23.53,1.08-3.61,6.47.97,18.64,5.35,31.06,13.29,5.07,26.73,9.96,33.79,6.25,14.31-7.51-4.33-11.06-2.43-25.58,1.9-14.51,32.5-7.88,32.58,4.01.08,11.89-14.4,11.81-.59,19.36,8.02,4.39,23.95,5.18,38.99,3.96-3.37-15.32-9.41-32.35-4.65-40.78Z"/>
  <path id="puzzle_26" class="cls-1" d="m31.43,102.3c14.67-7.4,1.67-6.09,3.15-21.32,1.48-15.23,32.46-12.12,32.91-.18s-13.82,19.31-1.64,25.91c6.55,3.54,21.26-2.78,35.67-8.23,4.54-12.3,8.49-24.07,4.94-30.46-7.52-13.53-12.3-.05-25.72-1.99-13.41-1.94-14.48-31.6.04-33.49s18.26,18.86,24.63,3.15c6.38-15.71-5.42-35.69-5.42-35.69H25C12.5,0,0,12.5,0,25v75s16.76,9.69,31.43,2.3Z"/>
  <path id="puzzle_27" class="cls-1" d="m105.42,35.69c-6.38,15.71-10.11-5.04-24.63-3.15s-13.46,31.55-.04,33.49c13.41,1.94,18.19-11.54,25.72,1.99,3.55,6.39-.4,18.15-4.94,30.46,12.4-4.68,24.59-8.71,31.15-5.23,14.2,7.53,1.41,6.58,2.83,21.88,1.42,15.29,28.86,18.04,30.86,4.19,2-13.85-14.95-15.53-2.25-22.69,6.21-3.51,19.75-4.99,33.66-4.73-2.65-8.99-4.23-17.25-1.25-22.66,7.55-13.7,5.71-1.19,17.65-1.62,11.94-.44,15.4-32.82-.15-33.93-15.55-1.11-13.23,15.96-20.48,1-7.25-14.95,6.46-34.69,6.46-34.69h-100s11.79,19.97,5.42,35.69Z"/>
  <path id="puzzle_28" class="cls-1" d="m303.74,669.3c-6.34-12.05-5.27-.09-17.92-1.67-12.66-1.58-17.93-34.86-3.47-36.77,14.46-1.92,17.24,16.09,23.32.27,2.92-7.6-.96-19.3-5.01-30.79-13.63-5.2-27.11-10.6-33.4-7.1-12.41,6.9,1.81,13.47.46,25.88-1.35,12.42-36.17,12.5-36.93-3.24-.77-15.74,15.68-12.34.11-18.97-5.45-2.32-13.61-4.23-22.43-5.46,2.38,15.05,2.64,32.25-1.76,41.06-7.36,14.74-5.35-1.04-20.76.26-15.41,1.3-13.33,35.78-1.38,36.27,11.95.49,14.14-12.8,21.2-.23,7.06,12.56-5.74,31.18-5.76,31.2h99.63c3.61-8.51,8.34-22.65,4.1-30.7Z"/>
  <path id="puzzle_29" class="cls-1" d="m634.55,580.96c1.42-15.29,30.26-14.18,32.26-.29,2,13.89-15.01,17.31-2.77,23.99,8.72,4.76,26.46-1.12,35.96-4.89v-99.8c-.58-.32-22.97-12.74-35.52-5.66-12.69,7.16,5.39,7.83,3.94,20.34-1.45,12.51-31.41,18.07-32.45,2.47-1.05-15.59,14.73-15.24-.24-22.48-6.29-3.05-17.39-4.27-29.14-4.12,1.1,15.6-.39,33.94-5.07,42.6-7.55,13.98-4.19,1.73-20.04,2.1-15.85.37-9.65,32.65,2.72,33.96,12.38,1.31,13.08-17.51,19.87-5.19,4.34,7.86,5.2,27.92,3.29,45.07,9.31-.11,17.99-1.18,23.71-3.49,15.73-6.32,2.06-9.33,3.48-24.62Z"/>
  <path id="puzzle_30" class="cls-1" d="m401.51,666.85c-7.32-12.94-3.04.52-15.64-1.01-12.6-1.53-18.61-32.89-3.98-34.74,14.63-1.86,15.86,15.43,21.89-.4,2.17-5.69,1.11-13.75-.78-22.35-15.05,1.22-30.97.43-38.99-3.96-13.8-7.55.67-7.47.59-19.36-.08-11.89-30.68-18.52-32.58-4.01-1.9,14.51,16.74,18.07,2.43,25.58-7.06,3.71-20.5-1.18-33.79-6.25,4.05,11.49,7.93,23.19,5.01,30.79-6.08,15.82-8.86-2.19-23.32-.27-14.46,1.92-9.19,35.2,3.47,36.77,12.66,1.58,11.58-10.38,17.92,1.67,4.24,8.05-.5,22.19-4.1,30.7h97.99c4.09-10.79,8.2-25.52,3.88-33.15Z"/>
  <path id="puzzle_31" class="cls-1" d="m503.05,669.09c-7.21-12.76-3.92.34-17.19-1.56-13.27-1.9-19.78-30.98-4.58-32.49,15.2-1.51,18.82,13.47,25.53-2.05,2.58-5.97.91-15.27-1.71-25.17-15.73,1.29-32.94.11-41.01-4.31-13.78-7.55.72-7.31.05-19.32-.67-12-28.74-12.79-30.6,1.81-1.87,14.6,13.22,11.45-2.66,17.15-6.65,2.39-17.03,4.31-27.87,5.19,1.89,8.6,2.95,16.66.78,22.35-6.03,15.83-7.27-1.46-21.89.4-14.63,1.86-8.62,33.22,3.98,34.74,12.6,1.53,8.32-11.93,15.64,1.01,4.32,7.63.21,22.36-3.88,33.15h100.9c4.06-8.43,9.32-22.43,4.53-30.91Z"/>
  <path id="puzzle_32" class="cls-1" d="m664.04,604.67c-12.24-6.69,4.77-10.11,2.77-23.99-2-13.89-30.84-15-32.26.29-1.42,15.29,12.26,18.3-3.48,24.62-5.73,2.3-14.4,3.38-23.71,3.49-1.08,9.72-3.04,18.51-5.77,23.6-7.55,14.07-1.25-1.41-15.59.54s-17.15,32.6-5.25,32.8c11.9.2,18.36-13.7,25.03-1.47,4.06,7.44.42,23.79-3.06,35.46h72.28c12.5,0,25-12.5,25-25v-75.22c-9.49,3.77-27.24,9.65-35.96,4.89Z"/>
  <path id="puzzle_33" class="cls-1" d="m605.78,664.54c-6.67-12.23-13.13,1.67-25.03,1.47-11.9-.2-9.09-30.85,5.25-32.8s8.04,13.53,15.59-.54c2.73-5.09,4.69-13.88,5.77-23.6-16.27.19-34.5-2.57-42.39-6.96-12.4-6.89,2.59-3.74,1.25-16.15-1.35-12.41-28.65-17.82-30.22-2.69-1.57,15.13,10.73,10.84-3.5,18.36-5.89,3.12-16.28,5.26-27.4,6.18,2.63,9.9,4.29,19.21,1.71,25.17-6.71,15.52-10.34.54-25.53,2.05-15.2,1.51-8.69,30.59,4.58,32.49,13.27,1.9,9.98-11.2,17.19,1.56,4.8,8.48-.47,22.49-4.53,30.91h104.2c3.47-11.67,7.12-28.02,3.06-35.46Z"/>
  <path id="puzzle_34" class="cls-1" d="m205.76,668.8c-7.06-12.57-9.25.72-21.2.23-11.95-.49-14.04-34.97,1.38-36.27,15.41-1.3,13.4,14.49,20.76-.26,4.4-8.81,4.14-26.01,1.76-41.06-16.39-2.28-35.07-2.21-42.93,1.98-12.1,6.44,2.2,8.24.93,20.59-1.27,12.34-30.32,19.84-30.84,4.02s15.19-13.67-.16-20.6c-7.34-3.31-19.97,0-32.55,3.59,3.8,13.03,7.17,25.95,3.82,33.01-7.16,15.08-6.94.92-22.6,1.84-15.66.92-11.33,28.29.57,28.51,11.9.22,13.3-13.4,20.79-.02,7.49,13.35-5.5,35.62-5.5,35.62,0,0,12.99-22.27,5.5-35.62-7.49-13.37-8.89.24-20.79.02-11.9-.22-16.23-27.59-.57-28.51,15.66-.92,15.44,13.23,22.6-1.84,3.36-7.06-.02-19.98-3.82-33.01-13.72,3.91-27.37,8.16-33.94,4.46-12.59-7.07.38-11.86-1.26-24.59-1.63-12.74-35.38-14.74-36.5.81s17.27,12.48,2.53,19.84c-14.74,7.36-33.76-1.53-33.76-1.53v75c0,12.5,12.5,25,25,25h175.01s12.82-18.64,5.76-31.2Z"/>
  <path id="puzzle_35" class="cls-1" d="m33.76,601.53c14.74-7.36-3.65-4.29-2.53-19.84s34.87-13.54,36.5-.81c1.63,12.74-11.33,17.52,1.26,24.59,6.57,3.69,20.21-.55,33.94-4.46-4.32-14.79-9.19-29.73-5.42-36.44,7.09-12.6,5.84,5.14,17.87,4.41,12.03-.73,14.26-33.67-1.24-34.85-15.5-1.18-10.07,13.77-15.95-2.09-2.96-7.97-.27-20.98,2.25-33.55-12.41-2.84-24.51-5.43-31.29-1.69-13.66,7.54-3.19,6.28-5.14,19.73-1.95,13.45-30.38,13.2-31.3-2.47-.92-15.66,13.62-8.18-.28-15.74-13.9-7.56-32.42,1.66-32.42,1.66v100s19.02,8.9,33.76,1.53Z"/>
  <path id="puzzle_36" class="cls-1" d="m193.54,34.69c7.25,14.95,4.93-2.11,20.48-1,15.55,1.11,12.09,33.49.15,33.93-11.94.44-10.1-12.08-17.65,1.62-2.98,5.41-1.4,13.67,1.25,22.66,14.52.28,29.43,2.46,36.82,6.28,14.47,7.47.14,3.8,1.26,19.34s32.82,10.89,33.46-1.11c.65-12-13.79-14.63-.46-22.1,4.93-2.76,13.1-3.9,22.21-3.89.39-9.08,1.6-17,3.7-21.32,5.79-11.9,10.78-4.35,22.77-4.96,11.99-.62,14.65-32.07-.66-33.47-15.32-1.4-14.95,19.42-22.42,4.94-7.47-14.48,5.54-35.62,5.54-35.62h-100s-13.71,19.74-6.46,34.69Z"/>
  <path id="puzzle_37" class="cls-1" d="m566.18,519.29c0,11.89-33.16,14.5-34.68-.69s14.36-17.24.06-24.75c-7.14-3.75-19.69.08-32.17,3.91-3.15,14.5-6.73,29.96-3.14,38.21,6.74,15.5,8.88-4.46,23.09-2.49,14.21,1.97,8.12,29.76-4.21,31.02-12.34,1.26-9.66-10.08-16.63,2.39-4.29,7.68,2.4,25.07,6.6,40.93,11.12-.91,21.51-3.06,27.4-6.18,14.23-7.53,1.93-3.23,3.5-18.36,1.57-15.13,28.87-9.72,30.22,2.69,1.35,12.41-13.65,9.26-1.25,16.15,7.89,4.38,26.12,7.15,42.39,6.96,1.9-17.15,1.04-37.21-3.29-45.07-6.79-12.32-7.5,6.5-19.87,5.19-12.37-1.31-18.58-33.58-2.72-33.96,15.85-.37,12.49,11.87,20.04-2.1,4.68-8.66,6.18-27.01,5.07-42.6-16.19.21-33.63,3.05-41.53,7.42-13.64,7.54,1.14,9.45,1.14,21.34Z"/>
  <path id="puzzle_38" class="cls-1" d="m582.34,464.19c-13.39-1.94-13.66-31.45.36-33.45,14.02-2,13.04,15.05,20.34.17,4.52-9.21-2.27-26.29-6.69-40.8-10.82.15-21.09,1.83-27.07,5.21-12.98,7.33,1.73,9.09-.06,22.08-1.78,12.99-37.5,13.8-38.28-1.93-.78-15.73,17.53-10.63,1.83-17.03-5.81-2.37-14.35-1.45-23.45.28.06,11.86-1.67,24.08-5.02,31.95-6.64,15.57-4.65,2.94-19.34,4.77s-17.46,28.8-4.24,30.69c13.22,1.88,14.38-10.93,20.86,1.19,3.03,5.67.58,17.68-2.2,30.44,12.48-3.84,25.02-7.67,32.17-3.91,14.3,7.51-1.58,9.56-.06,24.75s34.68,12.58,34.68.69-14.77-13.8-1.14-21.34c7.9-4.37,25.34-7.21,41.53-7.42-.68-9.57-2.33-18.11-4.83-22.74-6.58-12.17-6.02-1.66-19.41-3.6Z"/>
  <path id="puzzle_39" class="cls-1" d="m498.49,566.88c6.97-12.47,4.29-1.13,16.63-2.39,12.33-1.26,18.42-29.04,4.21-31.02-14.21-1.97-16.35,17.99-23.09,2.49-3.58-8.24-.01-23.71,3.14-38.21-12.5,3.84-24.92,7.69-31.77,3.91-13.67-7.54,1.36-7.31-.63-20.99-1.99-13.68-29.7-13.17-31.69.84s9.91,16.49-4.24,24.02c-8.43,4.49-24.61-1.57-39.09-5.64.34,11.9,1.95,23.69,4.62,30.87,5.9,15.86,4.57-1.81,19.19.05,14.63,1.86,13.49,31.36.2,33.27-13.29,1.91-10.21-9.7-17.63,3.47-4.75,8.43,1.28,25.46,4.65,40.78,10.84-.88,21.22-2.81,27.87-5.19,15.88-5.7.8-2.55,2.66-17.15,1.87-14.6,29.93-13.82,30.6-1.81.67,12.01-13.84,11.76-.05,19.32,8.08,4.42,25.28,5.61,41.01,4.31-4.21-15.86-10.89-33.25-6.6-40.93Z"/>
  <path id="puzzle_40" class="cls-1" d="m630.67,395.61c15.3,6.97,1.32,3.03,2.68,18.39,1.36,15.36,28.84,17.42,30.83,3.65,2-13.77-9.37-16.53,3.99-24.01,7.85-4.4,21.71.11,31.82,4.57v-98.21s-18.42-9.47-31.81-1.98c-13.4,7.5-1.08,4.12-1.15,16.01-.08,11.89-29.98,19.28-31.73,4.44s15.16-15.28.69-22.75c-9.2-4.75-29.34-5.07-45.9-3.01-.82,16.19.62,34.2,4.54,43.01,6.85,15.42,8.94-2.72,24.65-1.9,15.71.82,10.13,33.94-2.53,35.52-12.66,1.58-16.74-12.59-22.69-.66-2.27,4.55-.44,12.51,2.28,21.45,12.65-.18,26.07,1.74,34.32,5.49Z"/>
  <path id="puzzle_41" class="cls-1" d="m668.18,393.64c-13.36,7.49-2,10.24-3.99,24.01-2,13.77-29.48,11.7-30.83-3.65-1.36-15.36,12.63-11.42-2.68-18.39-8.25-3.76-21.67-5.67-34.32-5.49,4.42,14.51,11.2,31.6,6.69,40.8-7.3,14.88-6.31-2.17-20.34-.17-14.02,2-13.75,31.51-.36,33.45,13.39,1.94,12.83-8.57,19.41,3.6,2.5,4.63,4.15,13.17,4.83,22.74,11.75-.16,22.85,1.07,29.14,4.12,14.97,7.24-.81,6.89.24,22.48,1.05,15.59,31,10.04,32.45-2.47,1.45-12.51-16.63-13.18-3.94-20.34,12.56-7.08,34.95,5.34,35.52,5.66v-101.77c-10.1-4.47-23.97-8.97-31.82-4.57Z"/>
  <path id="puzzle_42" class="cls-1" d="m502.89,30.99c-6.74,15.5-1.65-.04-17.24,1.01-15.59,1.05-12.08,32.57.19,33.75,12.27,1.18,14.78-10.06,20.81,1.89,2.22,4.4,3.13,12.63,3.04,22.02,8.34.71,16.11,2.22,21.52,4.57,15.52,6.72.87,5.76,2.86,19.87,1.99,14.11,31.84,12.18,32.99-.07,1.15-12.26-13.01-8.47-.44-15.53,5.82-3.27,17.18-5.91,29.28-7.23-3.35-9.45-5.53-18.12-2.52-23.57,7.54-13.62,8.34,1.49,20.85.04,12.51-1.45,14.28-32.72-.22-34.62-14.5-1.9-8.88,16.44-16.41,2.2-7.53-14.23,2.4-35.33,2.4-35.33h-100s9.63,15.49,2.89,30.99Z"/>
  <path id="puzzle_43" class="cls-1" d="m669.07,197c-11.91,5.84,1.08,7.65.27,19.71-.81,12.06-36.72,14.43-38.66.08s19.62-11.89,4.47-19c-7.73-3.63-21.26-6.18-34.43-6.82-4.37,14.84-10.14,31.32-6.55,40.28,6.32,15.74,5.37,2.73,20.74,4.08s17.32,31.17,3.72,33.15c-13.6,1.98-15.74-17.22-22.94-4.48-3.08,5.46-4.97,16.57-5.58,28.7,16.56-2.06,36.69-1.74,45.9,3.01,14.47,7.47-2.45,7.91-.69,22.75s31.66,7.45,31.73-4.44c.08-11.89-12.25-8.51,1.15-16.01,13.39-7.49,31.76,1.95,31.81,1.98v-100c-.12-.06-19.06-8.82-30.93-3Z"/>
  <path id="puzzle_44" class="cls-1" d="m404.97,35.88c-7.28,14.9-4.28-5.06-19.07-3.28-14.8,1.78-17.75,33.72-4.83,35.47,12.92,1.75,15.37-16.08,22.05-3.85,2.76,5.05,4.49,15.51,5.11,27.14,8.93.43,17.22,1.9,22.46,4.74,13.96,7.55,4.06,6.18,5,21.84.94,15.65,28.58,13.43,29.8,1.12s-8.94-18.52,3.17-25c7.89-4.22,25.45-5.72,41.03-4.4.09-9.39-.81-17.62-3.04-22.02-6.03-11.94-8.54-.71-20.81-1.89-12.27-1.18-15.78-32.7-.19-33.75,15.59-1.05,10.5,14.49,17.24-1.01,6.74-15.5-2.89-30.99-2.89-30.99h-100s12.25,20.98,4.97,35.88Z"/>
  <path id="puzzle_45" class="cls-1" d="m294.46,35.62c7.47,14.48,7.1-6.35,22.42-4.94,15.32,1.4,12.65,32.85.66,33.47-11.99.62-16.98-6.94-22.77,4.96-2.1,4.32-3.31,12.24-3.7,21.32,15.51.03,33.74,3.41,43.31,7.86,15.19,7.07-4.25,1.13-2.71,16.3,1.54,15.17,35.8,15.83,37.53,2.94,1.73-12.89-11.85-15.18.06-21.04,7.44-3.66,24.1-5.84,38.97-5.13-.62-11.63-2.36-22.09-5.11-27.14-6.68-12.23-9.13,5.59-22.05,3.85-12.92-1.75-9.96-33.69,4.83-35.47,14.8-1.78,11.79,18.18,19.07,3.28,7.28-14.9-4.97-35.88-4.97-35.88h-100s-13.01,21.14-5.54,35.62Z"/>
  <path id="puzzle_46" class="cls-1" d="m666.71,93.17c-13.58,7.53-.67,10.45-2.65,24.06-1.98,13.61-32.68,15.96-33.29.17-.62-15.79,18.61-18.33,2.75-24.22-8.52-3.17-23.57-3.43-37.63-1.9,5.01,14.15,12.63,30.06,9.28,39.59-5.57,15.89-4.35.64-19.18,2.4-14.83,1.77-18.97,30.71-5.24,32.7,13.73,1.99,15.81-14.35,22.76-1.89,3,5.37.5,15.66-2.81,26.9,13.17.64,26.7,3.19,34.43,6.82,15.15,7.11-6.42,4.64-4.47,19s37.85,11.98,38.66-.08c.81-12.06-12.18-13.87-.27-19.71,11.87-5.82,30.81,2.94,30.93,3v-104.05c-9-3.43-24.19-7.83-33.29-2.77Z"/>
  <path id="puzzle_47" class="cls-1" d="m633.52,93.18c15.86,5.9-3.37,8.43-2.75,24.22.62,15.79,31.31,13.45,33.29-.17,1.98-13.61-10.93-16.53,2.65-24.06,9.11-5.06,24.3-.67,33.29,2.77V25c0-12.5-12.5-25-25-25h-75s-9.92,21.1-2.4,35.33c7.53,14.23,1.9-4.11,16.41-2.2,14.5,1.9,12.73,33.17.22,34.62-12.51,1.45-13.31-13.65-20.85-.04-3.02,5.45-.83,14.12,2.52,23.57,14.05-1.53,29.1-1.27,37.63,1.9Z"/>
</svg>